<mxfile host="Electron" modified="2024-05-06T15:42:51.125Z" agent="Mozilla/5.0 (Windows NT 10.0; Win64; x64) AppleWebKit/537.36 (KHTML, like Gecko) draw.io/24.2.5 Chrome/120.0.6099.109 Electron/28.1.0 Safari/537.36" etag="SaMimKgnH_L624pX15to" version="24.2.5" type="device">
  <diagram id="C5RBs43oDa-KdzZeNtuy" name="Page-1">
    <mxGraphModel dx="378" dy="247" grid="1" gridSize="10" guides="1" tooltips="1" connect="1" arrows="1" fold="1" page="1" pageScale="1" pageWidth="827" pageHeight="1169" math="0" shadow="0">
      <root>
        <mxCell id="WIyWlLk6GJQsqaUBKTNV-0" />
        <mxCell id="WIyWlLk6GJQsqaUBKTNV-1" parent="WIyWlLk6GJQsqaUBKTNV-0" />
        <mxCell id="D2bjokipILLCfBZqnvo0-0" value="Module" style="swimlane;fontStyle=1;align=center;verticalAlign=top;childLayout=stackLayout;horizontal=1;startSize=26;horizontalStack=0;resizeParent=1;resizeParentMax=0;resizeLast=0;collapsible=1;marginBottom=0;whiteSpace=wrap;html=1;" parent="WIyWlLk6GJQsqaUBKTNV-1" vertex="1">
          <mxGeometry x="230" y="120" width="280" height="230" as="geometry" />
        </mxCell>
        <mxCell id="D2bjokipILLCfBZqnvo0-1" value="- moduleID: String&lt;div&gt;&lt;div&gt;~ questionBanks: ArrayList&amp;lt;QuestionBank&amp;gt;&lt;/div&gt;&lt;/div&gt;&lt;div&gt;- fileReader: FileReader&lt;/div&gt;&lt;div&gt;- scanner: Scanner&lt;/div&gt;" style="text;strokeColor=none;fillColor=none;align=left;verticalAlign=top;spacingLeft=4;spacingRight=4;overflow=hidden;rotatable=0;points=[[0,0.5],[1,0.5]];portConstraint=eastwest;whiteSpace=wrap;html=1;" parent="D2bjokipILLCfBZqnvo0-0" vertex="1">
          <mxGeometry y="26" width="280" height="74" as="geometry" />
        </mxCell>
        <mxCell id="D2bjokipILLCfBZqnvo0-2" value="" style="line;strokeWidth=1;fillColor=none;align=left;verticalAlign=middle;spacingTop=-1;spacingLeft=3;spacingRight=3;rotatable=0;labelPosition=right;points=[];portConstraint=eastwest;strokeColor=inherit;" parent="D2bjokipILLCfBZqnvo0-0" vertex="1">
          <mxGeometry y="100" width="280" height="8" as="geometry" />
        </mxCell>
        <mxCell id="D2bjokipILLCfBZqnvo0-3" value="&lt;div&gt;+ Module(startModuleID: String)&lt;/div&gt;+ loadQuestionBank(questionBankID: String): void&lt;div&gt;+ removeQuestionBank(questionBankID: String, filename: String): void&lt;/div&gt;&lt;div&gt;+ writeQuestionBankToFile(filename: String, questionBankID: String&lt;/div&gt;&lt;div&gt;+ showQuestionBanks()&lt;/div&gt;" style="text;strokeColor=none;fillColor=none;align=left;verticalAlign=top;spacingLeft=4;spacingRight=4;overflow=hidden;rotatable=0;points=[[0,0.5],[1,0.5]];portConstraint=eastwest;whiteSpace=wrap;html=1;" parent="D2bjokipILLCfBZqnvo0-0" vertex="1">
          <mxGeometry y="108" width="280" height="122" as="geometry" />
        </mxCell>
        <mxCell id="D2bjokipILLCfBZqnvo0-4" value="QuestionBank" style="swimlane;fontStyle=1;align=center;verticalAlign=top;childLayout=stackLayout;horizontal=1;startSize=26;horizontalStack=0;resizeParent=1;resizeParentMax=0;resizeLast=0;collapsible=1;marginBottom=0;whiteSpace=wrap;html=1;" parent="WIyWlLk6GJQsqaUBKTNV-1" vertex="1">
          <mxGeometry x="580" y="120" width="350" height="250" as="geometry" />
        </mxCell>
        <mxCell id="D2bjokipILLCfBZqnvo0-5" value="- questionBankID: String&lt;div&gt;~ questions: ArrayList&amp;lt;String&amp;gt;&lt;/div&gt;&lt;div&gt;&amp;nbsp;- fileReader: FileReader&lt;/div&gt;&lt;div&gt;- scanner: Scanner&lt;/div&gt;&lt;div&gt;&lt;br&gt;&lt;/div&gt;" style="text;strokeColor=none;fillColor=none;align=left;verticalAlign=top;spacingLeft=4;spacingRight=4;overflow=hidden;rotatable=0;points=[[0,0.5],[1,0.5]];portConstraint=eastwest;whiteSpace=wrap;html=1;" parent="D2bjokipILLCfBZqnvo0-4" vertex="1">
          <mxGeometry y="26" width="350" height="74" as="geometry" />
        </mxCell>
        <mxCell id="D2bjokipILLCfBZqnvo0-6" value="" style="line;strokeWidth=1;fillColor=none;align=left;verticalAlign=middle;spacingTop=-1;spacingLeft=3;spacingRight=3;rotatable=0;labelPosition=right;points=[];portConstraint=eastwest;strokeColor=inherit;" parent="D2bjokipILLCfBZqnvo0-4" vertex="1">
          <mxGeometry y="100" width="350" height="8" as="geometry" />
        </mxCell>
        <mxCell id="D2bjokipILLCfBZqnvo0-7" value="&lt;div&gt;&lt;div&gt;+ QuestionBank(startQuestionBankID: String) &lt;/div&gt;&lt;div&gt;+ takeQuiz(totalQuestions: int): void &lt;/div&gt;&lt;div&gt;+ handleQuizQuestion(question: Question, questionIndex: int, userAnswers: ArrayList&amp;lt;String&amp;gt;, total: int): void &lt;/div&gt;&lt;div&gt;+ showResults(score: int, totalQuestions: int, answers: ArrayList&amp;lt;String&amp;gt;, timeTaken: long): void &lt;/div&gt;&lt;div&gt;+ loadQuestions(filename: String): void &lt;/div&gt;&lt;div&gt;+ removeQuestion(filename: String, questionIndex: int): void &lt;/div&gt;&lt;div&gt;+ showAllQuestions(): void&lt;/div&gt;&lt;/div&gt;&lt;div&gt;&lt;br&gt;&lt;/div&gt;" style="text;strokeColor=none;fillColor=none;align=left;verticalAlign=top;spacingLeft=4;spacingRight=4;overflow=hidden;rotatable=0;points=[[0,0.5],[1,0.5]];portConstraint=eastwest;whiteSpace=wrap;html=1;" parent="D2bjokipILLCfBZqnvo0-4" vertex="1">
          <mxGeometry y="108" width="350" height="142" as="geometry" />
        </mxCell>
        <mxCell id="D2bjokipILLCfBZqnvo0-8" value="" style="rounded=0;orthogonalLoop=1;jettySize=auto;html=1;" parent="WIyWlLk6GJQsqaUBKTNV-1" source="D2bjokipILLCfBZqnvo0-1" target="D2bjokipILLCfBZqnvo0-5" edge="1">
          <mxGeometry relative="1" as="geometry" />
        </mxCell>
        <mxCell id="D2bjokipILLCfBZqnvo0-9" value="&lt;div&gt;&lt;span style=&quot;font-weight: normal;&quot;&gt;&amp;lt;&amp;lt;abstract&amp;gt;&amp;gt;&lt;/span&gt;&lt;/div&gt;Question" style="swimlane;fontStyle=1;align=center;verticalAlign=top;childLayout=stackLayout;horizontal=1;startSize=45;horizontalStack=0;resizeParent=1;resizeParentMax=0;resizeLast=0;collapsible=1;marginBottom=0;whiteSpace=wrap;html=1;" parent="WIyWlLk6GJQsqaUBKTNV-1" vertex="1">
          <mxGeometry x="460" y="410" width="260" height="320" as="geometry" />
        </mxCell>
        <mxCell id="D2bjokipILLCfBZqnvo0-10" value="&lt;div&gt;~ questionText: String&lt;/div&gt;&lt;div&gt;~ questionBankID: String&lt;/div&gt;&lt;div&gt;~ userInp: Scanner&lt;/div&gt;&lt;div&gt;~ answerIndex: int&lt;/div&gt;&lt;div&gt;~ questionType: QuestionType&lt;/div&gt;&lt;div&gt;~&amp;nbsp;possibleAnswers: ArrayList&amp;lt;String&amp;gt;&lt;/div&gt;" style="text;strokeColor=none;fillColor=none;align=left;verticalAlign=top;spacingLeft=4;spacingRight=4;overflow=hidden;rotatable=0;points=[[0,0.5],[1,0.5]];portConstraint=eastwest;whiteSpace=wrap;html=1;" parent="D2bjokipILLCfBZqnvo0-9" vertex="1">
          <mxGeometry y="45" width="260" height="94" as="geometry" />
        </mxCell>
        <mxCell id="D2bjokipILLCfBZqnvo0-11" value="" style="line;strokeWidth=1;fillColor=none;align=left;verticalAlign=middle;spacingTop=-1;spacingLeft=3;spacingRight=3;rotatable=0;labelPosition=right;points=[];portConstraint=eastwest;strokeColor=inherit;" parent="D2bjokipILLCfBZqnvo0-9" vertex="1">
          <mxGeometry y="139" width="260" height="8" as="geometry" />
        </mxCell>
        <mxCell id="D2bjokipILLCfBZqnvo0-12" value="&lt;div&gt;+ addQuestion(questionBankID: String, questionType: String): void&lt;/div&gt;&lt;div&gt;&lt;span style=&quot;background-color: initial;&quot;&gt;+ getPossibleAnswers(): ArrayList&amp;lt;String&amp;gt;&lt;/span&gt;&lt;/div&gt;&lt;div&gt;+ setQuestionText(questionText: String): void&amp;nbsp;&lt;/div&gt;&lt;div&gt;+ getQuestionText(): String&amp;nbsp;&lt;/div&gt;&lt;div&gt;+ setPossibleAnswers(answers: String): void&amp;nbsp;&lt;/div&gt;&lt;div&gt;+ showQuestion(questionNum: int): void&amp;nbsp;&lt;/div&gt;&lt;div&gt;+ writeQuestionToFile(filename: String): void&amp;nbsp;&lt;/div&gt;&lt;div&gt;+ toString(): String&amp;nbsp;&lt;/div&gt;&lt;div&gt;+ abstract checkAnswer(inpString: String, total: int): int&lt;/div&gt;" style="text;strokeColor=none;fillColor=none;align=left;verticalAlign=top;spacingLeft=4;spacingRight=4;overflow=hidden;rotatable=0;points=[[0,0.5],[1,0.5]];portConstraint=eastwest;whiteSpace=wrap;html=1;" parent="D2bjokipILLCfBZqnvo0-9" vertex="1">
          <mxGeometry y="147" width="260" height="173" as="geometry" />
        </mxCell>
        <mxCell id="D2bjokipILLCfBZqnvo0-17" value="FillBlanks" style="swimlane;fontStyle=1;align=center;verticalAlign=top;childLayout=stackLayout;horizontal=1;startSize=26;horizontalStack=0;resizeParent=1;resizeParentMax=0;resizeLast=0;collapsible=1;marginBottom=0;whiteSpace=wrap;html=1;" parent="WIyWlLk6GJQsqaUBKTNV-1" vertex="1">
          <mxGeometry x="660" y="760" width="270" height="210" as="geometry" />
        </mxCell>
        <mxCell id="D2bjokipILLCfBZqnvo0-18" value="&lt;div&gt;&lt;br&gt;&lt;/div&gt;&lt;div&gt;&lt;br&gt;&lt;/div&gt;" style="text;strokeColor=none;fillColor=none;align=left;verticalAlign=top;spacingLeft=4;spacingRight=4;overflow=hidden;rotatable=0;points=[[0,0.5],[1,0.5]];portConstraint=eastwest;whiteSpace=wrap;html=1;" parent="D2bjokipILLCfBZqnvo0-17" vertex="1">
          <mxGeometry y="26" width="270" height="24" as="geometry" />
        </mxCell>
        <mxCell id="D2bjokipILLCfBZqnvo0-19" value="" style="line;strokeWidth=1;fillColor=none;align=left;verticalAlign=middle;spacingTop=-1;spacingLeft=3;spacingRight=3;rotatable=0;labelPosition=right;points=[];portConstraint=eastwest;strokeColor=inherit;" parent="D2bjokipILLCfBZqnvo0-17" vertex="1">
          <mxGeometry y="50" width="270" height="8" as="geometry" />
        </mxCell>
        <mxCell id="D2bjokipILLCfBZqnvo0-20" value="&lt;div&gt;+ FillBlanks(questionBankID: String, questionType: QuestionType) &lt;/div&gt;&lt;div&gt;+ FillBlanks(String, QuestionType, String, int) &lt;/div&gt;&lt;div&gt;+ FillBlanks(String, QuestionType, String, ArrayList&amp;lt;String&amp;gt;, int) &lt;/div&gt;&lt;div&gt;+ showQuestion(int): void &lt;/div&gt;&lt;div&gt;+ addQuestion(): void &lt;/div&gt;&lt;div&gt;+ checkAnswer(userAnswer: String, total: int): int&lt;/div&gt;" style="text;strokeColor=none;fillColor=none;align=left;verticalAlign=top;spacingLeft=4;spacingRight=4;overflow=hidden;rotatable=0;points=[[0,0.5],[1,0.5]];portConstraint=eastwest;whiteSpace=wrap;html=1;" parent="D2bjokipILLCfBZqnvo0-17" vertex="1">
          <mxGeometry y="58" width="270" height="152" as="geometry" />
        </mxCell>
        <mxCell id="gaf7ZaLwIS6UHUebbbbm-1" style="rounded=0;orthogonalLoop=1;jettySize=auto;html=1;exitX=0.5;exitY=0;exitDx=0;exitDy=0;" parent="WIyWlLk6GJQsqaUBKTNV-1" source="D2bjokipILLCfBZqnvo0-21" target="0anxgc5H_I9g6od2jKqY-3" edge="1">
          <mxGeometry relative="1" as="geometry">
            <mxPoint x="410" y="671.3333740234375" as="targetPoint" />
          </mxGeometry>
        </mxCell>
        <mxCell id="0anxgc5H_I9g6od2jKqY-17" value="1..1" style="edgeLabel;html=1;align=center;verticalAlign=middle;resizable=0;points=[];" parent="gaf7ZaLwIS6UHUebbbbm-1" vertex="1" connectable="0">
          <mxGeometry x="-0.2741" y="-1" relative="1" as="geometry">
            <mxPoint x="14" y="10" as="offset" />
          </mxGeometry>
        </mxCell>
        <mxCell id="D2bjokipILLCfBZqnvo0-21" value="Main" style="swimlane;fontStyle=1;align=center;verticalAlign=top;childLayout=stackLayout;horizontal=1;startSize=26;horizontalStack=0;resizeParent=1;resizeParentMax=0;resizeLast=0;collapsible=1;marginBottom=0;whiteSpace=wrap;html=1;" parent="WIyWlLk6GJQsqaUBKTNV-1" vertex="1">
          <mxGeometry x="230" y="610" width="180" height="130" as="geometry" />
        </mxCell>
        <mxCell id="D2bjokipILLCfBZqnvo0-22" value="&lt;div&gt;&lt;span style=&quot;background-color: initial;&quot;&gt;- menu: Menu&lt;/span&gt;&lt;br&gt;&lt;/div&gt;&lt;div&gt;- userInp: Scanner&lt;span style=&quot;background-color: initial;&quot;&gt;&lt;br&gt;&lt;/span&gt;&lt;/div&gt;" style="text;strokeColor=none;fillColor=none;align=left;verticalAlign=top;spacingLeft=4;spacingRight=4;overflow=hidden;rotatable=0;points=[[0,0.5],[1,0.5]];portConstraint=eastwest;whiteSpace=wrap;html=1;" parent="D2bjokipILLCfBZqnvo0-21" vertex="1">
          <mxGeometry y="26" width="180" height="44" as="geometry" />
        </mxCell>
        <mxCell id="D2bjokipILLCfBZqnvo0-23" value="" style="line;strokeWidth=1;fillColor=none;align=left;verticalAlign=middle;spacingTop=-1;spacingLeft=3;spacingRight=3;rotatable=0;labelPosition=right;points=[];portConstraint=eastwest;strokeColor=inherit;" parent="D2bjokipILLCfBZqnvo0-21" vertex="1">
          <mxGeometry y="70" width="180" height="8" as="geometry" />
        </mxCell>
        <mxCell id="D2bjokipILLCfBZqnvo0-24" value=" + runApp(): void&lt;div&gt;+ main(args: String[]): void&lt;/div&gt;&lt;div&gt;&lt;br&gt;&lt;/div&gt;" style="text;strokeColor=none;fillColor=none;align=left;verticalAlign=top;spacingLeft=4;spacingRight=4;overflow=hidden;rotatable=0;points=[[0,0.5],[1,0.5]];portConstraint=eastwest;whiteSpace=wrap;html=1;" parent="D2bjokipILLCfBZqnvo0-21" vertex="1">
          <mxGeometry y="78" width="180" height="52" as="geometry" />
        </mxCell>
        <mxCell id="Z39D8poa_tM1hzgPXQIC-2" value="" style="endArrow=classic;html=1;rounded=0;entryX=0.5;entryY=0;entryDx=0;entryDy=0;exitX=0.516;exitY=1;exitDx=0;exitDy=0;exitPerimeter=0;" parent="WIyWlLk6GJQsqaUBKTNV-1" source="D2bjokipILLCfBZqnvo0-7" target="D2bjokipILLCfBZqnvo0-9" edge="1">
          <mxGeometry width="50" height="50" relative="1" as="geometry">
            <mxPoint x="460" y="410" as="sourcePoint" />
            <mxPoint x="510" y="370" as="targetPoint" />
          </mxGeometry>
        </mxCell>
        <mxCell id="q3p-BSSAToSTRyiaWnOy-1" value="&amp;lt;&amp;lt;enum&amp;gt;&amp;gt;&lt;div&gt;&lt;b&gt;QuestionType&lt;/b&gt;&lt;/div&gt;" style="swimlane;fontStyle=0;childLayout=stackLayout;horizontal=1;startSize=40;fillColor=none;horizontalStack=0;resizeParent=1;resizeParentMax=0;resizeLast=0;collapsible=1;marginBottom=0;whiteSpace=wrap;html=1;" parent="WIyWlLk6GJQsqaUBKTNV-1" vertex="1">
          <mxGeometry x="800" y="1000" width="130" height="100" as="geometry" />
        </mxCell>
        <mxCell id="q3p-BSSAToSTRyiaWnOy-4" value="+&amp;nbsp;SINGLE_ANSWER, FILL_BLANKS, TRUE_FALSE" style="text;strokeColor=none;fillColor=none;align=left;verticalAlign=top;spacingLeft=4;spacingRight=4;overflow=hidden;rotatable=0;points=[[0,0.5],[1,0.5]];portConstraint=eastwest;whiteSpace=wrap;html=1;" parent="q3p-BSSAToSTRyiaWnOy-1" vertex="1">
          <mxGeometry y="40" width="130" height="60" as="geometry" />
        </mxCell>
        <mxCell id="q3p-BSSAToSTRyiaWnOy-5" value="" style="endArrow=block;endFill=0;endSize=12;html=1;rounded=0;exitX=0;exitY=0.5;exitDx=0;exitDy=0;entryX=0.678;entryY=0.996;entryDx=0;entryDy=0;entryPerimeter=0;edgeStyle=orthogonalEdgeStyle;" parent="WIyWlLk6GJQsqaUBKTNV-1" source="D2bjokipILLCfBZqnvo0-20" target="D2bjokipILLCfBZqnvo0-12" edge="1">
          <mxGeometry width="160" relative="1" as="geometry">
            <mxPoint x="800" y="820" as="sourcePoint" />
            <mxPoint x="690" y="723" as="targetPoint" />
          </mxGeometry>
        </mxCell>
        <mxCell id="q3p-BSSAToSTRyiaWnOy-7" value="" style="endArrow=block;endFill=0;endSize=12;html=1;rounded=0;exitX=0.64;exitY=0;exitDx=0;exitDy=0;entryX=0;entryY=0.5;entryDx=0;entryDy=0;exitPerimeter=0;edgeStyle=orthogonalEdgeStyle;" parent="WIyWlLk6GJQsqaUBKTNV-1" source="0anxgc5H_I9g6od2jKqY-8" target="D2bjokipILLCfBZqnvo0-12" edge="1">
          <mxGeometry width="160" relative="1" as="geometry">
            <mxPoint x="838.49" y="760" as="sourcePoint" />
            <mxPoint x="827.0017493472585" y="650" as="targetPoint" />
            <Array as="points">
              <mxPoint x="430" y="760" />
              <mxPoint x="430" y="644" />
            </Array>
          </mxGeometry>
        </mxCell>
        <mxCell id="q3p-BSSAToSTRyiaWnOy-8" style="rounded=0;orthogonalLoop=1;jettySize=auto;html=1;entryX=0;entryY=0.5;entryDx=0;entryDy=0;" parent="WIyWlLk6GJQsqaUBKTNV-1" source="D2bjokipILLCfBZqnvo0-12" target="q3p-BSSAToSTRyiaWnOy-4" edge="1">
          <mxGeometry relative="1" as="geometry">
            <mxPoint x="600" y="720" as="sourcePoint" />
            <mxPoint x="920" y="980" as="targetPoint" />
            <Array as="points">
              <mxPoint x="590" y="980" />
              <mxPoint x="750" y="980" />
              <mxPoint x="750" y="1070" />
            </Array>
          </mxGeometry>
        </mxCell>
        <mxCell id="w3MyxWXTEvE9FprpDVBn-0" value="1..*" style="edgeLabel;html=1;align=center;verticalAlign=middle;resizable=0;points=[];" parent="q3p-BSSAToSTRyiaWnOy-8" vertex="1" connectable="0">
          <mxGeometry x="-0.5669" y="-2" relative="1" as="geometry">
            <mxPoint x="14" y="-99" as="offset" />
          </mxGeometry>
        </mxCell>
        <mxCell id="w3MyxWXTEvE9FprpDVBn-1" value="1..1" style="edgeLabel;html=1;align=center;verticalAlign=middle;resizable=0;points=[];" parent="q3p-BSSAToSTRyiaWnOy-8" vertex="1" connectable="0">
          <mxGeometry x="0.6822" relative="1" as="geometry">
            <mxPoint x="20" y="27" as="offset" />
          </mxGeometry>
        </mxCell>
        <mxCell id="0anxgc5H_I9g6od2jKqY-13" style="rounded=0;orthogonalLoop=1;jettySize=auto;html=1;exitX=1;exitY=0.5;exitDx=0;exitDy=0;entryX=0.004;entryY=0.671;entryDx=0;entryDy=0;dashed=1;dashPattern=8 8;entryPerimeter=0;" parent="WIyWlLk6GJQsqaUBKTNV-1" source="0anxgc5H_I9g6od2jKqY-1" target="D2bjokipILLCfBZqnvo0-7" edge="1">
          <mxGeometry relative="1" as="geometry" />
        </mxCell>
        <mxCell id="0anxgc5H_I9g6od2jKqY-0" value="Menu" style="swimlane;fontStyle=1;align=center;verticalAlign=top;childLayout=stackLayout;horizontal=1;startSize=26;horizontalStack=0;resizeParent=1;resizeParentMax=0;resizeLast=0;collapsible=1;marginBottom=0;whiteSpace=wrap;html=1;" parent="WIyWlLk6GJQsqaUBKTNV-1" vertex="1">
          <mxGeometry x="230" y="380" width="180" height="180" as="geometry" />
        </mxCell>
        <mxCell id="0anxgc5H_I9g6od2jKqY-1" value="&lt;div&gt;- modules: ArrayList&amp;lt;Module&amp;gt;&lt;/div&gt;&lt;div&gt;- userInp: Scanner&lt;/div&gt;" style="text;strokeColor=none;fillColor=none;align=left;verticalAlign=top;spacingLeft=4;spacingRight=4;overflow=hidden;rotatable=0;points=[[0,0.5],[1,0.5]];portConstraint=eastwest;whiteSpace=wrap;html=1;" parent="0anxgc5H_I9g6od2jKqY-0" vertex="1">
          <mxGeometry y="26" width="180" height="44" as="geometry" />
        </mxCell>
        <mxCell id="0anxgc5H_I9g6od2jKqY-2" value="" style="line;strokeWidth=1;fillColor=none;align=left;verticalAlign=middle;spacingTop=-1;spacingLeft=3;spacingRight=3;rotatable=0;labelPosition=right;points=[];portConstraint=eastwest;strokeColor=inherit;" parent="0anxgc5H_I9g6od2jKqY-0" vertex="1">
          <mxGeometry y="70" width="180" height="8" as="geometry" />
        </mxCell>
        <mxCell id="0anxgc5H_I9g6od2jKqY-3" value="&lt;div&gt;+ Menu()&lt;/div&gt;&lt;div&gt;+ manageMenu(menuOpt: int): void&lt;/div&gt;&lt;div&gt;+ printMenu(): void&amp;nbsp; &amp;nbsp;&lt;/div&gt;&lt;div&gt;+ checkID(questionBankID: String): boolean&lt;/div&gt;" style="text;strokeColor=none;fillColor=none;align=left;verticalAlign=top;spacingLeft=4;spacingRight=4;overflow=hidden;rotatable=0;points=[[0,0.5],[1,0.5]];portConstraint=eastwest;whiteSpace=wrap;html=1;" parent="0anxgc5H_I9g6od2jKqY-0" vertex="1">
          <mxGeometry y="78" width="180" height="102" as="geometry" />
        </mxCell>
        <mxCell id="0anxgc5H_I9g6od2jKqY-4" value="1..*" style="edgeLabel;html=1;align=center;verticalAlign=middle;resizable=0;points=[];fontSize=12;" parent="WIyWlLk6GJQsqaUBKTNV-1" vertex="1" connectable="0">
          <mxGeometry x="569.9970588235295" y="169.9999999999999" as="geometry" />
        </mxCell>
        <mxCell id="0anxgc5H_I9g6od2jKqY-5" value="1..1" style="edgeLabel;html=1;align=center;verticalAlign=middle;resizable=0;points=[];fontSize=12;" parent="WIyWlLk6GJQsqaUBKTNV-1" vertex="1" connectable="0">
          <mxGeometry x="529.9952941176473" y="199" as="geometry">
            <mxPoint x="-2" y="-1" as="offset" />
          </mxGeometry>
        </mxCell>
        <mxCell id="0anxgc5H_I9g6od2jKqY-6" value="&lt;font style=&quot;font-size: 12px;&quot;&gt;1..1&lt;/font&gt;" style="edgeLabel;html=1;align=center;verticalAlign=middle;resizable=0;points=[];" parent="WIyWlLk6GJQsqaUBKTNV-1" vertex="1" connectable="0">
          <mxGeometry x="620.0014116438906" y="297.22127758152203" as="geometry">
            <mxPoint x="156" y="83" as="offset" />
          </mxGeometry>
        </mxCell>
        <mxCell id="0anxgc5H_I9g6od2jKqY-7" value="0..*" style="edgeLabel;html=1;align=center;verticalAlign=middle;resizable=0;points=[];fontSize=12;" parent="WIyWlLk6GJQsqaUBKTNV-1" vertex="1" connectable="0">
          <mxGeometry x="619.995650753933" y="410.0018116189866" as="geometry">
            <mxPoint x="-6" y="-11" as="offset" />
          </mxGeometry>
        </mxCell>
        <mxCell id="0anxgc5H_I9g6od2jKqY-8" value="SingleAnswer" style="swimlane;fontStyle=1;align=center;verticalAlign=top;childLayout=stackLayout;horizontal=1;startSize=26;horizontalStack=0;resizeParent=1;resizeParentMax=0;resizeLast=0;collapsible=1;marginBottom=0;whiteSpace=wrap;html=1;" parent="WIyWlLk6GJQsqaUBKTNV-1" vertex="1">
          <mxGeometry x="230" y="760" width="280" height="210" as="geometry" />
        </mxCell>
        <mxCell id="0anxgc5H_I9g6od2jKqY-9" value="&lt;div&gt;&lt;br&gt;&lt;/div&gt;&lt;div&gt;&lt;br&gt;&lt;/div&gt;" style="text;strokeColor=none;fillColor=none;align=left;verticalAlign=top;spacingLeft=4;spacingRight=4;overflow=hidden;rotatable=0;points=[[0,0.5],[1,0.5]];portConstraint=eastwest;whiteSpace=wrap;html=1;" parent="0anxgc5H_I9g6od2jKqY-8" vertex="1">
          <mxGeometry y="26" width="280" height="24" as="geometry" />
        </mxCell>
        <mxCell id="0anxgc5H_I9g6od2jKqY-10" value="" style="line;strokeWidth=1;fillColor=none;align=left;verticalAlign=middle;spacingTop=-1;spacingLeft=3;spacingRight=3;rotatable=0;labelPosition=right;points=[];portConstraint=eastwest;strokeColor=inherit;" parent="0anxgc5H_I9g6od2jKqY-8" vertex="1">
          <mxGeometry y="50" width="280" height="8" as="geometry" />
        </mxCell>
        <mxCell id="0anxgc5H_I9g6od2jKqY-11" value="&lt;div&gt;+ SingleAnswer(questionBankID: String, questionType: QuestionType)&lt;/div&gt;&lt;div&gt;+ SingleAnswer(String, QuestionType, String, ArrayList&amp;lt;String&amp;gt;, int)&lt;/div&gt;&lt;div&gt;+ SingleAnswer(String, QuestionType, String, int)&lt;/div&gt;&lt;div&gt;+ showQuestion(int): void&lt;/div&gt;&lt;div&gt;+ addQuestion(): void&lt;/div&gt;&lt;div&gt;&lt;span style=&quot;background-color: initial;&quot;&gt;+ checkAnswer(userAnswer: String, total: int): int&lt;/span&gt;&lt;/div&gt;" style="text;strokeColor=none;fillColor=none;align=left;verticalAlign=top;spacingLeft=4;spacingRight=4;overflow=hidden;rotatable=0;points=[[0,0.5],[1,0.5]];portConstraint=eastwest;whiteSpace=wrap;html=1;" parent="0anxgc5H_I9g6od2jKqY-8" vertex="1">
          <mxGeometry y="58" width="280" height="152" as="geometry" />
        </mxCell>
        <mxCell id="0anxgc5H_I9g6od2jKqY-12" style="rounded=0;orthogonalLoop=1;jettySize=auto;html=1;entryX=0.431;entryY=1.027;entryDx=0;entryDy=0;entryPerimeter=0;dashed=1;dashPattern=8 8;" parent="WIyWlLk6GJQsqaUBKTNV-1" source="0anxgc5H_I9g6od2jKqY-0" target="D2bjokipILLCfBZqnvo0-3" edge="1">
          <mxGeometry relative="1" as="geometry" />
        </mxCell>
        <mxCell id="0anxgc5H_I9g6od2jKqY-14" style="rounded=0;orthogonalLoop=1;jettySize=auto;html=1;dashed=1;dashPattern=8 8;" parent="WIyWlLk6GJQsqaUBKTNV-1" source="0anxgc5H_I9g6od2jKqY-3" target="D2bjokipILLCfBZqnvo0-12" edge="1">
          <mxGeometry relative="1" as="geometry" />
        </mxCell>
        <mxCell id="0anxgc5H_I9g6od2jKqY-18" value="1..1" style="edgeLabel;html=1;align=center;verticalAlign=middle;resizable=0;points=[];" parent="WIyWlLk6GJQsqaUBKTNV-1" vertex="1" connectable="0">
          <mxGeometry x="290" y="584.5" as="geometry">
            <mxPoint x="43" y="-16" as="offset" />
          </mxGeometry>
        </mxCell>
        <mxCell id="daeMMV4K_OllgHBx0BjC-0" value="SelectQuestion" style="swimlane;fontStyle=1;align=center;verticalAlign=top;childLayout=stackLayout;horizontal=1;startSize=26;horizontalStack=0;resizeParent=1;resizeParentMax=0;resizeLast=0;collapsible=1;marginBottom=0;whiteSpace=wrap;html=1;" vertex="1" parent="WIyWlLk6GJQsqaUBKTNV-1">
          <mxGeometry x="230" y="990" width="480" height="150" as="geometry" />
        </mxCell>
        <mxCell id="daeMMV4K_OllgHBx0BjC-1" value="&lt;div&gt;&lt;br&gt;&lt;/div&gt;&lt;div&gt;&lt;br&gt;&lt;/div&gt;" style="text;strokeColor=none;fillColor=none;align=left;verticalAlign=top;spacingLeft=4;spacingRight=4;overflow=hidden;rotatable=0;points=[[0,0.5],[1,0.5]];portConstraint=eastwest;whiteSpace=wrap;html=1;" vertex="1" parent="daeMMV4K_OllgHBx0BjC-0">
          <mxGeometry y="26" width="480" height="26" as="geometry" />
        </mxCell>
        <mxCell id="daeMMV4K_OllgHBx0BjC-2" value="" style="line;strokeWidth=1;fillColor=none;align=left;verticalAlign=middle;spacingTop=-1;spacingLeft=3;spacingRight=3;rotatable=0;labelPosition=right;points=[];portConstraint=eastwest;strokeColor=inherit;" vertex="1" parent="daeMMV4K_OllgHBx0BjC-0">
          <mxGeometry y="52" width="480" height="8" as="geometry" />
        </mxCell>
        <mxCell id="daeMMV4K_OllgHBx0BjC-3" value="+ initialiseQuestion(questionBankID: String, questionType: QuestionType): Question&lt;div&gt;+ initialiseQuestion(&lt;span style=&quot;background-color: initial;&quot;&gt;questionBankID: String,&lt;/span&gt;&lt;span style=&quot;background-color: initial;&quot;&gt;&amp;nbsp;questionType: QuestionType,&amp;nbsp;&lt;/span&gt;&lt;span style=&quot;background-color: initial;&quot;&gt;questionText: String,&lt;/span&gt;&lt;span style=&quot;background-color: initial;&quot;&gt;&amp;nbsp;possibleAnswers: ArrayList&amp;lt;String&amp;gt;,&lt;/span&gt;&lt;span style=&quot;background-color: initial;&quot;&gt;&amp;nbsp;answerIndex: int&amp;nbsp;&lt;/span&gt;): Question&lt;br&gt;&lt;/div&gt;&lt;div&gt;+ initialiseQuestion(&lt;span style=&quot;background-color: initial;&quot;&gt;questionBankID: String,&lt;/span&gt;&lt;span style=&quot;background-color: initial;&quot;&gt;&amp;nbsp;questionType: QuestionType,&amp;nbsp;&lt;/span&gt;&lt;span style=&quot;background-color: initial;&quot;&gt;questionText: String&lt;/span&gt;&lt;span style=&quot;background-color: initial;&quot;&gt;,&lt;/span&gt;&lt;span style=&quot;background-color: initial;&quot;&gt;&amp;nbsp;answerIndex: int&amp;nbsp;&lt;/span&gt;): Question&lt;br&gt;&lt;/div&gt;" style="text;strokeColor=none;fillColor=none;align=left;verticalAlign=top;spacingLeft=4;spacingRight=4;overflow=hidden;rotatable=0;points=[[0,0.5],[1,0.5]];portConstraint=eastwest;whiteSpace=wrap;html=1;" vertex="1" parent="daeMMV4K_OllgHBx0BjC-0">
          <mxGeometry y="60" width="480" height="90" as="geometry" />
        </mxCell>
        <mxCell id="daeMMV4K_OllgHBx0BjC-4" style="rounded=0;orthogonalLoop=1;jettySize=auto;html=1;exitX=0.689;exitY=-0.004;exitDx=0;exitDy=0;exitPerimeter=0;endArrow=classic;endFill=1;startArrow=none;startFill=0;dashed=1;dashPattern=8 8;entryX=0.391;entryY=0.996;entryDx=0;entryDy=0;entryPerimeter=0;" edge="1" parent="WIyWlLk6GJQsqaUBKTNV-1" source="daeMMV4K_OllgHBx0BjC-0" target="D2bjokipILLCfBZqnvo0-12">
          <mxGeometry relative="1" as="geometry">
            <mxPoint x="573" y="720" as="targetPoint" />
          </mxGeometry>
        </mxCell>
        <mxCell id="daeMMV4K_OllgHBx0BjC-5" value="TrueFalse" style="swimlane;fontStyle=1;align=center;verticalAlign=top;childLayout=stackLayout;horizontal=1;startSize=26;horizontalStack=0;resizeParent=1;resizeParentMax=0;resizeLast=0;collapsible=1;marginBottom=0;whiteSpace=wrap;html=1;" vertex="1" parent="WIyWlLk6GJQsqaUBKTNV-1">
          <mxGeometry x="755" y="440" width="175" height="250" as="geometry" />
        </mxCell>
        <mxCell id="daeMMV4K_OllgHBx0BjC-6" value="&lt;div&gt;&lt;br&gt;&lt;/div&gt;&lt;div&gt;&lt;br&gt;&lt;/div&gt;" style="text;strokeColor=none;fillColor=none;align=left;verticalAlign=top;spacingLeft=4;spacingRight=4;overflow=hidden;rotatable=0;points=[[0,0.5],[1,0.5]];portConstraint=eastwest;whiteSpace=wrap;html=1;" vertex="1" parent="daeMMV4K_OllgHBx0BjC-5">
          <mxGeometry y="26" width="175" height="24" as="geometry" />
        </mxCell>
        <mxCell id="daeMMV4K_OllgHBx0BjC-7" value="" style="line;strokeWidth=1;fillColor=none;align=left;verticalAlign=middle;spacingTop=-1;spacingLeft=3;spacingRight=3;rotatable=0;labelPosition=right;points=[];portConstraint=eastwest;strokeColor=inherit;" vertex="1" parent="daeMMV4K_OllgHBx0BjC-5">
          <mxGeometry y="50" width="175" height="8" as="geometry" />
        </mxCell>
        <mxCell id="daeMMV4K_OllgHBx0BjC-8" value="&lt;div&gt;+ TrueFalse(questionBankID: String, questionType: QuestionType) &lt;/div&gt;&lt;div&gt;+ TrueFalse(String, QuestionType, String, int) &lt;/div&gt;&lt;div&gt;+ TrueFalse(String, QuestionType, String, ArrayList&amp;lt;String&amp;gt;, int) &lt;/div&gt;&lt;div&gt;+ showQuestion(int): void &lt;/div&gt;&lt;div&gt;+ addQuestion(): void &lt;/div&gt;&lt;div&gt;+ checkAnswer(userAnswer: String, total: int): int&lt;/div&gt;" style="text;strokeColor=none;fillColor=none;align=left;verticalAlign=top;spacingLeft=4;spacingRight=4;overflow=hidden;rotatable=0;points=[[0,0.5],[1,0.5]];portConstraint=eastwest;whiteSpace=wrap;html=1;" vertex="1" parent="daeMMV4K_OllgHBx0BjC-5">
          <mxGeometry y="58" width="175" height="192" as="geometry" />
        </mxCell>
        <mxCell id="daeMMV4K_OllgHBx0BjC-9" style="rounded=0;orthogonalLoop=1;jettySize=auto;html=1;endArrow=block;endFill=0;endSize=12;" edge="1" parent="WIyWlLk6GJQsqaUBKTNV-1" source="daeMMV4K_OllgHBx0BjC-8" target="D2bjokipILLCfBZqnvo0-12">
          <mxGeometry relative="1" as="geometry" />
        </mxCell>
      </root>
    </mxGraphModel>
  </diagram>
</mxfile>
